<svg xmlns="http://www.w3.org/2000/svg" width="25" height="25" viewBox="0 0 25 25"><g><g><g/><g><g><g><path fill="#e0e0e0" d="M17.188 0A7.813 7.813 0 0 1 25 7.813v9.375A7.813 7.813 0 0 1 17.187 25H7.813A7.813 7.813 0 0 1 0 17.187V7.813A7.813 7.813 0 0 1 7.813 0zm5.468 7.813a5.475 5.475 0 0 0-5.469-5.47H7.813a5.475 5.475 0 0 0-5.468 5.47v9.375a5.475 5.475 0 0 0 5.469 5.468h9.375a5.475 5.475 0 0 0 5.468-5.469z"/></g></g></g><g><g><g><path fill="#e0e0e0" d="M18.75 12.5a6.25 6.25 0 1 1-12.5 0 6.25 6.25 0 0 1 12.5 0zm-2.344 0A3.91 3.91 0 0 0 12.5 8.594 3.91 3.91 0 0 0 8.594 12.5a3.912 3.912 0 0 0 3.906 3.906 3.912 3.912 0 0 0 3.906-3.906z"/></g></g></g><g><g><g><path fill="#e0e0e0" d="M19.223 6.616a.833.833 0 1 0 0-1.666.833.833 0 0 0 0 1.666z"/></g></g></g></g></g></svg>