<svg xmlns="http://www.w3.org/2000/svg" width="20" height="18" viewBox="0 0 20 18"><g><g><path fill="#fff" d="M17.474 14.66c-.004.005-.012.006-.016.011-1.76 1.749-4.29 2.875-7.112 2.961l-.195.005c-.05.001-.1.003-.151.003l-.152-.003-.194-.004c-2.82-.086-5.346-1.21-7.106-2.955-.007-.007-.016-.01-.022-.018-.003-.003-.003-.006-.005-.01C.954 13.087 0 11.029 0 8.776c0-2.344 1.033-4.476 2.715-6.063l.005-.004C4.47 1.058 6.925 0 9.654-.082l.195-.005c.05-.001.1-.003.151-.003l.151.003.195.005c2.73.083 5.184 1.14 6.935 2.79l.005.004C18.966 4.299 20 6.432 20 8.775c0 2.253-.954 4.31-2.521 5.876-.002.003-.002.006-.005.008zM.698 9.08c.079 1.899.883 3.636 2.175 4.998a13.405 13.405 0 0 1 2.797-1.263 10.187 10.187 0 0 1-.833-3.734zm0-.61h4.14c.041-1.395.364-2.748.948-4.004A13.416 13.416 0 0 1 3.06 3.28C1.66 4.669.781 6.48.698 8.47zm18.604 0c-.083-1.99-.961-3.801-2.363-5.19-.858.494-1.772.89-2.724 1.186.583 1.256.906 2.61.948 4.003zM9.655.717c-1.235.956-2.222 2.103-2.92 3.374a13.49 13.49 0 0 0 2.92.392zm0 4.377a14.252 14.252 0 0 1-3.209-.44 9.654 9.654 0 0 0-.92 3.814h4.13zm.69 3.374h4.128a9.652 9.652 0 0 0-.919-3.813 14.24 14.24 0 0 1-3.21.44zm0-3.985a13.49 13.49 0 0 0 2.92-.392c-.698-1.271-1.685-2.418-2.92-3.374zm6.105-1.653C15.05 1.637 13.233.828 11.214.594a11.46 11.46 0 0 1 2.72 3.312 12.712 12.712 0 0 0 2.516-1.075zM8.786.594C6.766.828 4.95 1.637 3.551 2.83a12.7 12.7 0 0 0 2.515 1.075A11.456 11.456 0 0 1 8.786.594zM5.526 9.08a9.63 9.63 0 0 0 .798 3.54 14.22 14.22 0 0 1 3.331-.472V9.081zm4.13 3.68c-1.049.026-2.076.17-3.064.428.705 1.378 1.741 2.62 3.063 3.643zm.689 4.07c1.322-1.022 2.358-2.264 3.063-3.642a13.446 13.446 0 0 0-3.063-.428zm0-4.682a14.2 14.2 0 0 1 3.33.472 9.628 9.628 0 0 0 .798-3.54h-4.128zm4.818-3.068a10.181 10.181 0 0 1-.833 3.734c.98.315 1.918.737 2.797 1.263 1.292-1.362 2.096-3.099 2.175-4.997zm-6.377 7.875a11.396 11.396 0 0 1-2.852-3.576c-.908.289-1.776.675-2.592 1.156 1.425 1.294 3.323 2.174 5.444 2.42zm7.872-2.42a12.681 12.681 0 0 0-2.592-1.156 11.389 11.389 0 0 1-2.852 3.576c2.121-.246 4.02-1.126 5.444-2.42z"/></g></g></svg>