<svg xmlns="http://www.w3.org/2000/svg" width="160" height="53" viewBox="0 0 160 53"><g><g><g/><g><g><g><g><g><path fill="#b7b7b7" d="M147.257 0H11.285c-.414 0-.815.013-1.23.013-.896.027-1.792.08-2.674.239a9.071 9.071 0 0 0-2.54.835A8.419 8.419 0 0 0 2.673 2.65a8.05 8.05 0 0 0-1.578 2.147 8.876 8.876 0 0 0-.842 2.517c-.16.875-.214 1.762-.24 2.65 0 .41-.014.822-.014 1.219v30.621c0 .41.013.808.027 1.219.026.887.08 1.775.24 2.65.16.887.415 1.722.843 2.517.401.795.936 1.51 1.578 2.133a8.116 8.116 0 0 0 2.166 1.564 9.07 9.07 0 0 0 2.54.835c.883.159 1.792.212 2.675.238.4.027.802.04 1.216.04h137.416c.401 0 .829 0 1.23-.013.896-.027 1.792-.08 2.675-.239a9.3 9.3 0 0 0 2.554-.834 8.341 8.341 0 0 0 2.166-1.564 8.523 8.523 0 0 0 1.578-2.133 8.49 8.49 0 0 0 .829-2.518c.16-.874.214-1.762.254-2.65V41.83c.013-.477.013-.954.013-1.444V12.641c0-.49 0-.968-.013-1.445V9.977c-.027-.887-.081-1.775-.254-2.65a8.49 8.49 0 0 0-.829-2.517 8.697 8.697 0 0 0-1.578-2.147A8.76 8.76 0 0 0 155.16 1.1a9.3 9.3 0 0 0-2.554-.835c-.883-.159-1.779-.212-2.675-.238-.401 0-.829-.014-1.23-.014C148.233 0 147.739 0 147.257 0z"/></g><g><path fill="#000001" d="M11.282 51.851c-.401 0-.802 0-1.203-.013-.75-.026-1.632-.066-2.5-.212a7.93 7.93 0 0 1-2.22-.729 7.23 7.23 0 0 1-1.872-1.351 7.257 7.257 0 0 1-1.364-1.855 7.226 7.226 0 0 1-.722-2.2c-.16-.888-.2-1.802-.228-2.49-.013-.279-.013-1.207-.013-1.207V11.188s.013-.914.013-1.18c.027-.688.067-1.603.228-2.477a7.49 7.49 0 0 1 .735-2.2A7.495 7.495 0 0 1 3.5 3.475a7.085 7.085 0 0 1 1.859-1.351 7.685 7.685 0 0 1 2.206-.716c.91-.172 1.818-.212 2.514-.225l1.203-.013h137.416l1.217.013c.682.013 1.604.053 2.487.212.802.146 1.538.371 2.233.729a7.39 7.39 0 0 1 1.858 1.351 7.476 7.476 0 0 1 1.364 1.855c.348.676.575 1.392.722 2.187.161.834.201 1.696.228 2.504v1.18c.013.503.013.966.013 1.443v27.733c0 .477 0 .954-.013 1.43v1.233c-.027.782-.081 1.643-.228 2.451a7.4 7.4 0 0 1-.722 2.213 7.171 7.171 0 0 1-1.364 1.842 6.918 6.918 0 0 1-1.872 1.351 8.016 8.016 0 0 1-2.233.729c-.855.159-1.738.199-2.5.212-.388.013-.802.013-1.203.013h-1.444z"/></g></g></g><g><g><g><g><path fill="#fff" d="M33.121 26.895c-.04-3.643 3.009-5.419 3.156-5.498-1.725-2.491-4.4-2.836-5.335-2.862-2.247-.239-4.426 1.325-5.563 1.325-1.163 0-2.928-1.312-4.827-1.272-2.447.04-4.733 1.444-5.977 3.617-2.58 4.439-.655 10.958 1.819 14.548 1.243 1.763 2.687 3.724 4.586 3.644 1.859-.08 2.554-1.166 4.787-1.166 2.22 0 2.861 1.166 4.8 1.126 1.993-.026 3.25-1.762 4.44-3.537 1.43-2.014 2.005-4.002 2.032-4.094-.067-.014-3.878-1.458-3.918-5.83z"/></g><g><path fill="#fff" d="M29.467 16.174c1.003-1.232 1.684-2.915 1.484-4.624-1.444.066-3.25.994-4.292 2.2-.923 1.06-1.738 2.809-1.525 4.452 1.618.119 3.29-.809 4.333-2.028z"/></g></g></g><g><g><path fill="#fff" d="M56.563 35.965H50.24l-1.525 4.451H46.04l5.99-16.456h2.782l5.99 16.456h-2.728zm-5.67-2.054h5.015l-2.474-7.222h-.067z"/></g><g><path fill="#fff" d="M73.756 34.411c0 3.724-2.02 6.122-5.055 6.122-1.725 0-3.088-.769-3.81-2.094h-.054v5.936H62.35V28.41h2.407v2.001h.04c.695-1.285 2.166-2.12 3.85-2.12 3.09 0 5.109 2.398 5.109 6.121zm-2.554 0c0-2.424-1.27-4.028-3.196-4.028-1.899 0-3.182 1.63-3.182 4.028 0 2.412 1.283 4.042 3.182 4.042 1.925 0 3.196-1.59 3.196-4.042z"/></g><g><path fill="#fff" d="M87.072 34.411c0 3.724-2.019 6.122-5.054 6.122-1.725 0-3.089-.769-3.81-2.094h-.054v5.936H75.68V28.41h2.407v2.001h.04c.695-1.285 2.166-2.12 3.85-2.12 3.076 0 5.095 2.398 5.095 6.121zm-2.554 0c0-2.424-1.27-4.028-3.195-4.028-1.9 0-3.183 1.63-3.183 4.028 0 2.412 1.284 4.042 3.183 4.042 1.938 0 3.195-1.59 3.195-4.042z"/></g><g><path fill="#fff" d="M95.88 35.83c.188 1.63 1.779 2.703 3.972 2.703 2.099 0 3.597-1.073 3.597-2.544 0-1.272-.91-2.04-3.062-2.57l-2.153-.517c-3.049-.729-4.466-2.147-4.466-4.439 0-2.835 2.5-4.783 6.044-4.783 3.503 0 5.91 1.948 5.99 4.783h-2.514c-.147-1.643-1.524-2.636-3.516-2.636-1.993 0-3.37 1.007-3.37 2.464 0 1.166.87 1.842 3.009 2.372l1.831.45c3.41.795 4.827 2.16 4.827 4.558 0 3.074-2.473 5.009-6.404 5.009-3.678 0-6.165-1.882-6.325-4.863h2.54z"/></g><g><path fill="#fff" d="M111.445 25.57v2.836h2.3v1.947h-2.3v6.612c0 1.033.455 1.51 1.471 1.51.254 0 .655-.04.816-.053v1.935c-.28.066-.83.12-1.377.12-2.447 0-3.41-.915-3.41-3.234v-6.876h-1.765v-1.948h1.765V25.57z"/></g><g><path fill="#fff" d="M115.07 34.408c0-3.776 2.246-6.148 5.736-6.148 3.517 0 5.736 2.372 5.736 6.148 0 3.79-2.22 6.148-5.736 6.148-3.503 0-5.736-2.358-5.736-6.148zm8.959 0c0-2.584-1.204-4.12-3.21-4.12-2.005 0-3.208 1.536-3.208 4.12 0 2.597 1.19 4.12 3.209 4.12s3.209-1.523 3.209-4.12z"/></g><g><path fill="#fff" d="M128.62 28.413h2.367v2.04h.053c.375-1.351 1.484-2.173 2.915-2.173.361 0 .655.053.856.093v2.305c-.2-.08-.629-.146-1.11-.146-1.604 0-2.594 1.074-2.594 2.756v7.116h-2.487V28.412z"/></g><g><path fill="#fff" d="M141.04 40.556c-3.517 0-5.71-2.332-5.71-6.095s2.193-6.201 5.603-6.201c3.342 0 5.455 2.279 5.455 5.923v.848h-8.544v.145c0 2.054 1.297 3.392 3.262 3.392 1.378 0 2.46-.649 2.795-1.682h2.353c-.334 2.173-2.473 3.67-5.214 3.67zm2.874-7.261c-.053-1.842-1.243-3.047-2.968-3.047-1.712.013-2.955 1.245-3.089 3.047z"/></g></g></g></g><g><g><g><path fill="#fff" d="M49.125 14.911h1.07c.882 0 1.51-.517 1.51-1.259 0-.729-.547-1.206-1.497-1.206-.936 0-1.537.464-1.604 1.233h-1.177c.08-1.431 1.15-2.319 2.821-2.319 1.565 0 2.675.875 2.675 2.12 0 .875-.589 1.617-1.444 1.802v.093c1.03.106 1.778.808 1.778 1.908 0 1.351-1.297 2.345-2.982 2.345-1.738 0-2.928-.927-2.995-2.345h1.19c.067.755.776 1.245 1.805 1.245 1.03 0 1.712-.543 1.712-1.325 0-.781-.642-1.272-1.752-1.272h-1.096v-1.02z"/></g><g><path fill="#fff" d="M54.59 17.786c0-1.074.802-1.696 2.233-1.776l1.631-.093v-.516c0-.636-.414-.98-1.23-.98-.668 0-1.123.238-1.257.662h-1.15c.12-1.02 1.097-1.683 2.46-1.683 1.512 0 2.367.742 2.367 2v4.082h-1.15v-.835h-.093c-.361.596-1.016.94-1.805.94-1.164-.012-2.006-.702-2.006-1.801zm3.864-1.007l-1.47.092c-.83.053-1.204.332-1.204.862 0 .543.468.848 1.11.848.91 0 1.564-.557 1.564-1.299z"/></g><g><path fill="#fff" d="M62.8 14.494v4.969h-1.19V13.5h3.958v.994z"/></g><g><path fill="#fff" d="M72.78 16.487c0 1.895-.963 3.088-2.488 3.088-.856 0-1.537-.371-1.858-1.007h-.094v2.888h-1.19v-7.95h1.15v.98h.094c.36-.675 1.07-1.086 1.885-1.086 1.538.013 2.5 1.192 2.5 3.087zm-1.218 0c0-1.258-.601-2.027-1.604-2.027-1.003 0-1.631.782-1.631 2.027 0 1.246.628 2.028 1.618 2.028 1.016 0 1.618-.756 1.618-2.028z"/></g><g><path fill="#fff" d="M74.355 21.609v-1.02c.094.013.28.026.388.026.561 0 .882-.225 1.083-.834l.094-.292-2.18-5.989h1.297l1.51 4.744h.095l1.51-4.744h1.257l-2.246 6.214c-.508 1.458-1.083 1.922-2.313 1.922-.094 0-.375-.014-.495-.027z"/></g><g><path fill="#fff" d="M80.33 17.786h1.177c.12.53.615.795 1.31.795.789 0 1.284-.345 1.284-.888 0-.57-.442-.848-1.284-.848h-.896v-.914h.883c.722 0 1.083-.278 1.083-.769 0-.437-.348-.768-1.083-.768-.669 0-1.15.278-1.23.755h-1.15c.12-1.06 1.016-1.749 2.366-1.749 1.431 0 2.247.636 2.247 1.643a1.23 1.23 0 0 1-.95 1.219v.093c.776.185 1.177.676 1.177 1.338 0 1.14-.976 1.881-2.46 1.881-1.297.014-2.367-.583-2.474-1.788z"/></g><g><path fill="#fff" d="M87.01 19.473V13.51h1.177v4.107h.093l2.782-4.107h1.176v5.963h-1.176v-4.121h-.094l-2.781 4.12z"/></g><g><path fill="#fff" d="M98.717 14.494H96.82v4.969h-1.19v-4.97H93.73V13.5h4.987z"/></g><g><path fill="#fff" d="M105.109 17.865c-.268 1.074-1.23 1.723-2.608 1.723-1.725 0-2.781-1.166-2.781-3.074s1.083-3.114 2.781-3.114c1.672 0 2.688 1.14 2.688 3.008v.41h-4.252v.067c.04 1.047.655 1.709 1.604 1.709.722 0 1.217-.252 1.431-.729zm-1.137-1.921c-.027-.94-.602-1.55-1.484-1.55-.883 0-1.484.623-1.551 1.55z"/></g><g><path fill="#fff" d="M110.15 13.5h2.714c1.177 0 1.872.596 1.872 1.524 0 .61-.428 1.153-1.016 1.259v.092c.776.093 1.284.65 1.284 1.378 0 1.047-.79 1.723-2.113 1.723h-2.741zm1.177.914v1.55h1.176c.722 0 1.057-.278 1.057-.781 0-.464-.295-.769-.936-.769zm0 2.412v1.749h1.404c.708 0 1.083-.305 1.083-.875 0-.596-.428-.874-1.23-.874z"/></g></g></g></g></g></g></svg>